<svg xmlns="http://www.w3.org/2000/svg" width="64" height="64" viewBox="0 0 64 64">
  <g fill="none" stroke="#8B5CF6" stroke-width="3.5" stroke-linecap="round" stroke-linejoin="round">
    <rect x="5" y="18" width="40" height="40" rx="8"/>
    <path d="M14 48 L20 30 L26 48 M16.5 42 L23.5 42"/>
    <path d="M32 30 L32 48 M29 30 L35 30 M29 48 L35 48"/>
  </g>
  <path d="M50 4 C50.5 16, 51.5 17, 62 18 C51.5 19, 50.5 20, 50 32 C49.5 20, 48.5 19, 38 18 C48.5 17, 49.5 16, 50 4 Z" fill="#8B5CF6"/>
  <path d="M58 32 C58.2 36, 58.8 36.5, 62.5 37 C58.8 37.5, 58.2 38, 58 42 C57.8 38, 57.2 37.5, 53.5 37 C57.2 36.5, 57.8 36, 58 32 Z" fill="#8B5CF6"/>
</svg>
